<svg xmlns="http://www.w3.org/2000/svg">
  <defs>
    <style>symbol{overflow:visible}</style>
  </defs>

  <symbol id="i-phone" viewBox="0 0 24 24" fill="none" stroke="currentColor" stroke-width="1.8" stroke-linecap="round" stroke-linejoin="round"><path d="M22 16.9v3a2 2 0 0 1-2.2 2 19.8 19.8 0 0 1-8.6-3.1 19.5 19.5 0 0 1-6-6A19.8 19.8 0 0 1 2.1 4.2 2 2 0 0 1 4.1 2h3a2 2 0 0 1 2 1.7c.1.9.4 1.8.7 2.7a2 2 0 0 1-.5 2.1L8 9.8a16 16 0 0 0 6 6l1.3-1.3a2 2 0 0 1 2.1-.4c.9.3 1.8.6 2.7.7a2 2 0 0 1 1.7 2z"/></symbol>

  <symbol id="i-mail" viewBox="0 0 24 24" fill="none" stroke="currentColor" stroke-width="1.8" stroke-linecap="round" stroke-linejoin="round"><rect x="2" y="4" width="20" height="16" rx="2.5"/><path d="m22 7-10 6L2 7"/></symbol>

  <symbol id="i-pin" viewBox="0 0 24 24" fill="none" stroke="currentColor" stroke-width="1.8" stroke-linecap="round" stroke-linejoin="round"><path d="M20 10c0 6-8 12-8 12S4 16 4 10a8 8 0 0 1 16 0z"/><circle cx="12" cy="10" r="3"/></symbol>

  <symbol id="i-clock" viewBox="0 0 24 24" fill="none" stroke="currentColor" stroke-width="1.8" stroke-linecap="round" stroke-linejoin="round"><circle cx="12" cy="12" r="10"/><path d="M12 6v6l4 2"/></symbol>

  <symbol id="i-arrow" viewBox="0 0 24 24" fill="none" stroke="currentColor" stroke-width="2" stroke-linecap="round" stroke-linejoin="round"><path d="M5 12h14M13 5l7 7-7 7"/></symbol>

  <symbol id="i-check" viewBox="0 0 24 24" fill="none" stroke="currentColor" stroke-width="2.4" stroke-linecap="round" stroke-linejoin="round"><path d="M20 6 9 17l-5-5"/></symbol>

  <symbol id="i-star" viewBox="0 0 24 24" fill="currentColor"><path d="M12 2.5l2.9 6 6.6.9-4.8 4.6 1.2 6.5L12 17.4l-5.9 3.1 1.2-6.5L2.5 9.4l6.6-.9z"/></symbol>

  <symbol id="i-menu" viewBox="0 0 24 24" fill="none" stroke="currentColor" stroke-width="2" stroke-linecap="round"><path d="M4 7h16M4 12h16M4 17h16"/></symbol>

  <symbol id="i-close" viewBox="0 0 24 24" fill="none" stroke="currentColor" stroke-width="2" stroke-linecap="round"><path d="M6 6l12 12M18 6 6 18"/></symbol>

  <symbol id="i-chevron" viewBox="0 0 24 24" fill="none" stroke="currentColor" stroke-width="2" stroke-linecap="round" stroke-linejoin="round"><path d="m6 9 6 6 6-6"/></symbol>

  <symbol id="i-truck" viewBox="0 0 24 24" fill="none" stroke="currentColor" stroke-width="1.8" stroke-linecap="round" stroke-linejoin="round"><path d="M14 17V6a1 1 0 0 0-1-1H3a1 1 0 0 0-1 1v10a1 1 0 0 0 1 1h1"/><path d="M14 9h4l4 4v3a1 1 0 0 1-1 1h-1"/><path d="M9 17h6"/><circle cx="6.5" cy="17.5" r="2"/><circle cx="17.5" cy="17.5" r="2"/></symbol>

  <symbol id="i-washer" viewBox="0 0 24 24" fill="none" stroke="currentColor" stroke-width="1.8" stroke-linecap="round" stroke-linejoin="round"><rect x="3" y="2" width="18" height="20" rx="2.5"/><path d="M3 7h18"/><circle cx="12" cy="14" r="4.5"/><path d="M9.5 14.5c1 .8 2.2.8 3.2 0s2.1-.8 2.8 0"/><circle cx="7" cy="4.6" r=".6" fill="currentColor"/><circle cx="9.5" cy="4.6" r=".6" fill="currentColor"/></symbol>

  <symbol id="i-iron" viewBox="0 0 24 24" fill="none" stroke="currentColor" stroke-width="1.8" stroke-linecap="round" stroke-linejoin="round"><path d="M3 18h18v-2a6 6 0 0 0-6-6H7.5"/><path d="M7.5 10 9 6h7.5a2 2 0 0 1 2 2"/><path d="M7 14h.01M11 14h.01M15 14h.01"/></symbol>

  <symbol id="i-shirt" viewBox="0 0 24 24" fill="none" stroke="currentColor" stroke-width="1.8" stroke-linecap="round" stroke-linejoin="round"><path d="M20.4 6.6 16 3.5c-.6.9-2 2.5-4 2.5s-3.4-1.6-4-2.5L3.6 6.6a1 1 0 0 0-.4 1.2l1.2 3a1 1 0 0 0 1.2.6L7 11v9a1 1 0 0 0 1 1h8a1 1 0 0 0 1-1v-9l1.4.4a1 1 0 0 0 1.2-.6l1.2-3a1 1 0 0 0-.4-1.2z"/></symbol>

  <symbol id="i-hanger" viewBox="0 0 24 24" fill="none" stroke="currentColor" stroke-width="1.8" stroke-linecap="round" stroke-linejoin="round"><path d="M12 8.5V8a2.5 2.5 0 1 0-2.5-2.5"/><path d="M12 8.5 2.8 15.2A1.6 1.6 0 0 0 3.8 18h16.4a1.6 1.6 0 0 0 1-2.8z"/></symbol>

  <symbol id="i-bed" viewBox="0 0 24 24" fill="none" stroke="currentColor" stroke-width="1.8" stroke-linecap="round" stroke-linejoin="round"><path d="M2 20V6M22 20v-6a3 3 0 0 0-3-3H2"/><path d="M2 17h20"/><rect x="5" y="7.5" width="5" height="3.5" rx="1.2"/></symbol>

  <symbol id="i-table" viewBox="0 0 24 24" fill="none" stroke="currentColor" stroke-width="1.8" stroke-linecap="round" stroke-linejoin="round"><path d="M2 8h20l-2 5H4z"/><path d="M4 13v2.5c1.3.8 2.7.8 4 0s2.7-.8 4 0 2.7.8 4 0 2.7-.8 4 0V13"/><path d="M6 16v5M18 16v5"/></symbol>

  <symbol id="i-scissors" viewBox="0 0 24 24" fill="none" stroke="currentColor" stroke-width="1.8" stroke-linecap="round" stroke-linejoin="round"><circle cx="6" cy="6" r="3"/><circle cx="6" cy="18" r="3"/><path d="M20 4 8.1 15.9M14.5 14.5 20 20M8.1 8.1 12 12"/></symbol>

  <symbol id="i-drop" viewBox="0 0 24 24" fill="none" stroke="currentColor" stroke-width="1.8" stroke-linecap="round" stroke-linejoin="round"><path d="M12 2.7s6.5 7 6.5 11.8a6.5 6.5 0 0 1-13 0C5.5 9.7 12 2.7 12 2.7z"/><path d="M9 15a3 3 0 0 0 3 3"/></symbol>

  <symbol id="i-sparkle" viewBox="0 0 24 24" fill="none" stroke="currentColor" stroke-width="1.8" stroke-linecap="round" stroke-linejoin="round"><path d="M12 3v3M12 18v3M3 12h3M18 12h3M5.6 5.6l2.1 2.1M16.3 16.3l2.1 2.1M5.6 18.4l2.1-2.1M16.3 7.7l2.1-2.1"/><circle cx="12" cy="12" r="2.5"/></symbol>

  <symbol id="i-home" viewBox="0 0 24 24" fill="none" stroke="currentColor" stroke-width="1.8" stroke-linecap="round" stroke-linejoin="round"><path d="m3 10 9-7 9 7v10a2 2 0 0 1-2 2H5a2 2 0 0 1-2-2z"/><path d="M9 22v-8h6v8"/></symbol>

  <symbol id="i-store" viewBox="0 0 24 24" fill="none" stroke="currentColor" stroke-width="1.8" stroke-linecap="round" stroke-linejoin="round"><path d="M3 9 4.5 3h15L21 9"/><path d="M3 9a3 3 0 0 0 6 0 3 3 0 0 0 6 0 3 3 0 0 0 6 0"/><path d="M5 12v9h14v-9"/><path d="M10 21v-5h4v5"/></symbol>

  <symbol id="i-hardhat" viewBox="0 0 24 24" fill="none" stroke="currentColor" stroke-width="1.8" stroke-linecap="round" stroke-linejoin="round"><path d="M2 18a1 1 0 0 0 1 1h18a1 1 0 0 0 1-1v-2a1 1 0 0 0-1-1H3a1 1 0 0 0-1 1z"/><path d="M10 10V5a1 1 0 0 1 1-1h2a1 1 0 0 1 1 1v5"/><path d="M4 15v-3a6 6 0 0 1 6-6M14 6a6 6 0 0 1 6 6v3"/></symbol>

  <symbol id="i-bolt" viewBox="0 0 24 24" fill="none" stroke="currentColor" stroke-width="1.8" stroke-linecap="round" stroke-linejoin="round"><path d="M13 2 4 14h7l-1 8 9-12h-7z"/></symbol>

  <symbol id="i-heart" viewBox="0 0 24 24" fill="none" stroke="currentColor" stroke-width="1.8" stroke-linecap="round" stroke-linejoin="round"><path d="M19 14c1.5-1.5 3-3.2 3-5.5A5.5 5.5 0 0 0 16.5 3c-1.8 0-3 .5-4.5 2-1.5-1.5-2.7-2-4.5-2A5.5 5.5 0 0 0 2 8.5c0 2.3 1.5 4 3 5.5l7 7z"/></symbol>

  <symbol id="i-shield" viewBox="0 0 24 24" fill="none" stroke="currentColor" stroke-width="1.8" stroke-linecap="round" stroke-linejoin="round"><path d="M12 22s8-4 8-10V5l-8-3-8 3v7c0 6 8 10 8 10z"/><path d="m9 12 2 2 4-4"/></symbol>

  <symbol id="i-calendar" viewBox="0 0 24 24" fill="none" stroke="currentColor" stroke-width="1.8" stroke-linecap="round" stroke-linejoin="round"><rect x="3" y="4" width="18" height="18" rx="2.5"/><path d="M16 2v4M8 2v4M3 10h18"/><path d="m9 16 2 2 4-4"/></symbol>

  <symbol id="i-gift" viewBox="0 0 24 24" fill="none" stroke="currentColor" stroke-width="1.8" stroke-linecap="round" stroke-linejoin="round"><rect x="3" y="8" width="18" height="4" rx="1"/><path d="M12 8v13M19 12v7a2 2 0 0 1-2 2H7a2 2 0 0 1-2-2v-7"/><path d="M7.5 8a2.5 2.5 0 0 1 0-5C11 3 12 8 12 8s1-5 4.5-5a2.5 2.5 0 0 1 0 5"/></symbol>

  <symbol id="i-basket" viewBox="0 0 24 24" fill="none" stroke="currentColor" stroke-width="1.8" stroke-linecap="round" stroke-linejoin="round"><path d="M3 9h18l-1.6 10.2a2 2 0 0 1-2 1.8H6.6a2 2 0 0 1-2-1.8z"/><path d="M8 9 10 3M16 9l-2-6"/><path d="M9 13v4M12 13v4M15 13v4"/></symbol>

  <symbol id="i-coffee" viewBox="0 0 24 24" fill="none" stroke="currentColor" stroke-width="1.8" stroke-linecap="round" stroke-linejoin="round"><path d="M17 8h1a4 4 0 0 1 0 8h-1"/><path d="M3 8h14v9a4 4 0 0 1-4 4H7a4 4 0 0 1-4-4z"/><path d="M6 2v2M10 2v2M14 2v2"/></symbol>

  <symbol id="i-car" viewBox="0 0 24 24" fill="none" stroke="currentColor" stroke-width="1.8" stroke-linecap="round" stroke-linejoin="round"><path d="M19 17h2v-4.5a2 2 0 0 0-.6-1.4L18 9l-1.8-3.6A2 2 0 0 0 14.4 4H9.6a2 2 0 0 0-1.8 1.1L6 9l-2.4 2.1a2 2 0 0 0-.6 1.4V17h2"/><circle cx="7.5" cy="17.5" r="2"/><circle cx="16.5" cy="17.5" r="2"/><path d="M9.5 17h5M6 9h12"/></symbol>

  <symbol id="i-users" viewBox="0 0 24 24" fill="none" stroke="currentColor" stroke-width="1.8" stroke-linecap="round" stroke-linejoin="round"><path d="M16 21v-2a4 4 0 0 0-4-4H6a4 4 0 0 0-4 4v2"/><circle cx="9" cy="7" r="4"/><path d="M22 21v-2a4 4 0 0 0-3-3.9M16 3.1a4 4 0 0 1 0 7.8"/></symbol>

  <symbol id="i-directions" viewBox="0 0 24 24" fill="none" stroke="currentColor" stroke-width="1.8" stroke-linecap="round" stroke-linejoin="round"><path d="M11.3 2.7a1 1 0 0 1 1.4 0l8.6 8.6a1 1 0 0 1 0 1.4l-8.6 8.6a1 1 0 0 1-1.4 0l-8.6-8.6a1 1 0 0 1 0-1.4z"/><path d="M9 14v-2a2 2 0 0 1 2-2h4"/><path d="m13 8 2 2-2 2"/></symbol>

  <symbol id="i-facebook" viewBox="0 0 24 24" fill="currentColor"><path d="M13.5 21.9v-7.4h2.5l.4-2.9h-2.9V9.8c0-.8.2-1.4 1.4-1.4h1.6V5.8c-.3 0-1.2-.1-2.3-.1-2.3 0-3.8 1.4-3.8 3.9v2.1H8v2.9h2.4v7.4a10 10 0 1 1 3.1 0z"/></symbol>

  <symbol id="i-quote" viewBox="0 0 24 24" fill="currentColor"><path d="M9.6 5C5.9 6.4 3.5 9.6 3.5 13.6V19h6.3v-6.3H6.6c0-2.5 1.5-4.5 3.9-5.6zm10 0c-3.7 1.4-6.1 4.6-6.1 8.6V19h6.3v-6.3h-3.2c0-2.5 1.5-4.5 3.9-5.6z"/></symbol>

  <symbol id="i-leaf" viewBox="0 0 24 24" fill="none" stroke="currentColor" stroke-width="1.8" stroke-linecap="round" stroke-linejoin="round"><path d="M11 20A7 7 0 0 1 9.8 6.1C15.5 5 17 4.5 19 2c1 2 2 4.2 2 8 0 5.5-4.8 10-10 10z"/><path d="M2 21c0-3 1.9-5.4 5.1-6C9.5 14.5 12 13 13 12"/></symbol>

  <symbol id="i-camera" viewBox="0 0 24 24" fill="none" stroke="currentColor" stroke-width="1.8" stroke-linecap="round" stroke-linejoin="round"><path d="M14.5 4h-5L7 7H4a2 2 0 0 0-2 2v9a2 2 0 0 0 2 2h16a2 2 0 0 0 2-2V9a2 2 0 0 0-2-2h-3z"/><circle cx="12" cy="13" r="3.5"/></symbol>

  <symbol id="i-tag" viewBox="0 0 24 24" fill="none" stroke="currentColor" stroke-width="1.8" stroke-linecap="round" stroke-linejoin="round"><path d="M12.6 2.6A2 2 0 0 0 11.2 2H4a2 2 0 0 0-2 2v7.2a2 2 0 0 0 .6 1.4l8.7 8.7a2.4 2.4 0 0 0 3.4 0l6.6-6.6a2.4 2.4 0 0 0 0-3.4z"/><circle cx="7.5" cy="7.5" r="1.2" fill="currentColor"/></symbol>

  <symbol id="i-repeat" viewBox="0 0 24 24" fill="none" stroke="currentColor" stroke-width="1.8" stroke-linecap="round" stroke-linejoin="round"><path d="m17 2 4 4-4 4"/><path d="M3 11v-1a4 4 0 0 1 4-4h14"/><path d="m7 22-4-4 4-4"/><path d="M21 13v1a4 4 0 0 1-4 4H3"/></symbol>

  <symbol id="i-towel" viewBox="0 0 24 24" fill="none" stroke="currentColor" stroke-width="1.8" stroke-linecap="round" stroke-linejoin="round"><path d="M6 3h12a2 2 0 0 1 2 2v1H4V5a2 2 0 0 1 2-2z"/><path d="M5 6v13a2 2 0 0 0 2 2h10a2 2 0 0 0 2-2V6"/><path d="M5 15h14M5 17.5h14"/></symbol>
</svg>
